<svg xmlns="http://www.w3.org/2000/svg" width="297mm" height="15mm" viewBox="0 0 297 15">
  <defs>
    <linearGradient id="scrGold" x1="0%" y1="0%" x2="100%" y2="0%">
      <stop offset="0%" style="stop-color:#8B6914"/>
      <stop offset="50%" style="stop-color:#D4AF37"/>
      <stop offset="100%" style="stop-color:#8B6914"/>
    </linearGradient>
  </defs>
  
  <!-- Center scroll ornament -->
  <g transform="translate(148.5,7.5)">
    <path d="M-8,-3 Q0,-7 8,-3 Q12,0 8,3 Q0,7 -8,3 Q-12,0 -8,-3 Z" fill="none" stroke="url(#scrGold)" stroke-width="1.5"/>
    <circle cx="0" cy="0" r="2" fill="#D4AF37"/>
  </g>
  
  <!-- Left line with curls -->
  <line x1="10" y1="7.5" x2="130" y2="7.5" stroke="url(#scrGold)" stroke-width="1.5"/>
  <path d="M130,7.5 Q135,5 132,3 Q130,5 132,7.5" fill="none" stroke="#8B6914" stroke-width="1"/>
  
  <!-- Right line with curls -->
  <line x1="167" y1="7.5" x2="287" y2="7.5" stroke="url(#scrGold)" stroke-width="1.5"/>
  <path d="M167,7.5 Q162,5 165,3 Q167,5 165,7.5" fill="none" stroke="#8B6914" stroke-width="1"/>
  
  <!-- Small leaves -->
  <path d="M120,7.5 Q118,5 115,5 Q118,7 120,7.5" fill="#D4AF37" opacity="0.5"/>
  <path d="M177,7.5 Q179,5 182,5 Q179,7 177,7.5" fill="#D4AF37" opacity="0.5"/>
</svg>
